<svg width="67" height="67" viewBox="0 0 67 67" fill="none" xmlns="http://www.w3.org/2000/svg">
<path fill-rule="evenodd" clip-rule="evenodd" d="M33.5 0C14.9912 0 0 14.9912 0 33.5C0 48.3237 9.58937 60.8444 22.9056 65.2831C24.5806 65.5763 25.2087 64.5713 25.2087 63.6919C25.2087 62.8963 25.1669 60.2581 25.1669 57.4525C16.75 59.0019 14.5725 55.4006 13.9025 53.5162C13.5256 52.5531 11.8925 49.58 10.4688 48.7844C9.29625 48.1562 7.62125 46.6069 10.4269 46.565C13.065 46.5231 14.9494 48.9937 15.5775 49.9987C18.5925 55.0656 23.4081 53.6419 25.3344 52.7625C25.6275 50.585 26.5069 49.1194 27.47 48.2819C20.0162 47.4444 12.2275 44.555 12.2275 31.7412C12.2275 28.0981 13.5256 25.0831 15.6613 22.7381C15.3263 21.9006 14.1537 18.4669 15.9962 13.8606C15.9962 13.8606 18.8019 12.9813 25.2087 17.2944C27.8887 16.5406 30.7363 16.1637 33.5838 16.1637C36.4313 16.1637 39.2788 16.5406 41.9588 17.2944C48.3656 12.9394 51.1713 13.8606 51.1713 13.8606C53.0138 18.4669 51.8413 21.9006 51.5063 22.7381C53.6419 25.0831 54.94 28.0562 54.94 31.7412C54.94 44.5969 47.1094 47.4444 39.6556 48.2819C40.87 49.3287 41.9169 51.3388 41.9169 54.4794C41.9169 58.96 41.875 62.5613 41.875 63.6919C41.875 64.5713 42.5031 65.6181 44.1781 65.2831C57.4106 60.8444 67 48.2819 67 33.5C67 14.9912 52.0088 0 33.5 0Z" fill="#6B8E6E"/>
</svg>
